<?xml version="1.0" standalone="no"?>
<!DOCTYPE svg PUBLIC "-//W3C//DTD SVG 20010904//EN"
 "http://www.w3.org/TR/2001/REC-SVG-20010904/DTD/svg10.dtd">
<svg version="1.0" xmlns="http://www.w3.org/2000/svg"
 width="222.000000pt" height="227.000000pt" viewBox="0 0 222.000000 227.000000"
 preserveAspectRatio="xMidYMid meet">

<g transform="translate(0.000000,227.000000) scale(0.100000,-0.100000)"
fill="#000000" stroke="none">
<path d="M1000 1876 l-115 -62 -3 -122 c-1 -67 -4 -122 -7 -122 -2 0 -46 25
-99 55 -52 30 -98 55 -102 55 -4 0 -67 -33 -140 -72 l-134 -73 0 -392 0 -391
360 -206 360 -206 125 67 125 68 0 113 c0 61 2 112 4 112 3 0 41 -23 86 -52
l81 -52 67 37 c37 20 99 53 137 74 l70 38 2 400 3 400 -343 198 c-189 108
-348 196 -353 196 -5 -1 -61 -29 -124 -63z m469 -181 l310 -180 1 -364 c0
-342 -1 -363 -17 -356 -10 3 -53 27 -95 52 l-78 45 0 256 0 257 -218 126 -217
125 -5 112 c-3 62 -2 111 2 110 4 -2 147 -84 317 -183z m-371 69 l-3 -106 -82
-45 -83 -45 0 109 0 109 78 42 c42 23 81 42 85 42 4 0 6 -48 5 -106z m-354
-173 c123 -69 121 -61 21 -115 -52 -28 -94 -45 -104 -41 -9 3 -51 27 -94 52
l-78 46 88 48 c48 27 90 48 92 49 2 0 36 -18 75 -39z m601 -101 c88 -50 161
-93 163 -95 2 -1 -33 -24 -78 -49 l-81 -47 -177 102 c-97 56 -185 108 -195
114 -17 12 -10 18 64 58 l83 46 31 -18 c16 -10 102 -60 190 -111z m-778 -54
l103 -58 2 -255 3 -256 210 -122 210 -121 3 -108 c2 -66 -1 -107 -7 -104 -5 1
-152 84 -325 183 l-316 180 0 363 c0 200 3 361 8 359 4 -2 53 -30 109 -61z
m313 -188 l0 -233 -79 -42 c-44 -24 -82 -43 -85 -43 -4 0 -5 104 -4 232 l3
232 75 43 c41 23 78 42 83 43 4 0 7 -105 7 -232z m278 103 l162 -94 0 -228 c0
-126 -2 -229 -4 -229 -2 0 -89 49 -192 108 l-189 108 -3 233 -2 233 32 -19
c18 -10 106 -61 196 -112z m392 -228 l0 -228 -79 -42 c-44 -24 -84 -43 -90
-43 -8 0 -11 65 -9 222 l3 222 80 47 c44 26 83 48 88 48 4 1 7 -101 7 -226z
m-432 -268 c95 -54 169 -101 165 -106 -4 -4 -42 -26 -84 -48 l-75 -41 -185
106 c-101 59 -188 110 -192 114 -5 4 29 28 75 53 72 40 85 44 103 33 11 -7 98
-57 193 -111z m532 -51 c44 -25 80 -49 80 -52 0 -4 -42 -29 -93 -56 l-92 -49
-78 51 -79 50 49 27 c26 16 66 38 88 51 22 13 41 23 43 24 2 0 39 -21 82 -46z
m-337 -305 c-9 -8 -153 -89 -160 -89 -2 0 -2 48 -1 108 l3 107 80 42 80 41 3
-100 c1 -56 -1 -105 -5 -109z"/>
</g>
</svg>
